<?xml version="1.0" encoding="utf-8"?>
<!-- Generator: Adobe Illustrator 19.1.0, SVG Export Plug-In . SVG Version: 6.00 Build 0)  -->
<svg version="1.1" id="Layer_1" xmlns="http://www.w3.org/2000/svg" xmlns:xlink="http://www.w3.org/1999/xlink" x="0px" y="0px"
	 viewBox="-338.5 102.8 301.8 334.9" style="enable-background:new -338.5 102.8 301.8 334.9;" xml:space="preserve">
<style type="text/css">
	.st0{fill:#2B3E51;}
	.st1{fill:#FFC1DC;stroke:#FFC1DC;stroke-miterlimit:10;}
</style>
<ellipse class="st0" cx="-209.7" cy="269.2" rx="7.5" ry="7.6"/>
<ellipse class="st0" cx="-130.5" cy="254.1" rx="7.5" ry="7.6"/>
<g>
	<path class="st0" d="M-181.9,275.4l-2.7-1.4c0.1-0.2,9-17.7,31.8-7.6l-1.2,2.8C-174.2,260.3-181.6,274.8-181.9,275.4z"/>
</g>
<g>
	<path class="st0" d="M-176.8,285.4l-2.2-2.2c0.5-0.5,11.7-11.7,22-7.2l-1.2,2.8C-166.6,275.2-176.7,285.3-176.8,285.4z"/>
</g>
<g>
	<path class="st0" d="M-167,294.5l-2.8-1.2c0-0.1,1.2-3,4.4-4.3c2.7-1.2,6-0.9,9.8,0.7l-1.2,2.8c-3-1.3-5.4-1.5-7.4-0.7
		C-166.2,292.7-167,294.5-167,294.5z"/>
</g>
<path class="st1" d="M-41.2,369.4c-8.7-21.4-23.6-25.9-34.7-25.9c-5.3,0-9.5,1.1-11.1,1.6c-15.5-11-29.1-47.3-31.3-53.3
	c11.8-11.7,17.3-29.3,19.5-47.1c54.5-1.8,59.2-70.8,59.3-71.5c2.7-63.9-25.8-68.8-27-68.9c-30.8-6.5-63,26.7-68.4,32.6
	c-42.1-15.3-107.2,16.9-110.1,18.4c-8,4-13.5,9.6-17.2,16.1c-7-0.1-47.8,0-66.5,18.4c-6.1,6-9.2,13.4-9.2,22.1
	c0,0.4,3.7,42.5,34.2,67.4c14.8,12.1,33.4,18.2,55.4,18.2c5.9,0,12.1-0.4,18.5-1.3c5.1,4.8,10.2,8.3,15.1,10.8
	c-1.8,6.6-10.3,36.6-22.6,47.9c-7.1-3.8-13.4-4.4-13.6-4.4c-38.7-1.3-46.2,40.7-46.3,41.3c-2.8,34.1,38.9,38.7,39.3,38.8
	c1.8,0.2,3.6,0.3,5.3,0.3c10.6,0,17.9-3.8,23-9c3.6,3.5,17.4,15.7,37.8,15.7c10.3,0,22.4-3.1,35.6-12.1c5.3,4.3,32.7,23.7,59.9-4.1
	c5.4,2.3,11.2,3.1,16.2,3.1c10.1,0,18.3-2.8,18.7-2.9c10.7-3.6,18-9.7,21.7-18.2C-33.2,387.5-40.8,370-41.2,369.4z M-120.2,295.3
	l-0.9,0.1c0,0-0.1,2.3-1.8,3.5c-1.2,0.8-3.1,0.9-5.4,0.5c2.8-1.5,5.4-3.3,7.7-5.2C-120.5,294.4-120.4,294.8-120.2,295.3z
	 M-133.4,308.8c-0.2-0.1-0.4-0.1-0.6-0.2c-1-0.5-2.6-1.8-4.2-5.3c1.2-0.3,2.3-0.7,3.4-1.1C-134.9,304.3-134.6,307-133.4,308.8z
	 M-67,107.2c0.3,0,27.1,4.9,24.4,65.7c0,0.7-4.6,66.5-55.9,68.6c3-30.8-3.3-61.3-3.4-61.9c-1.3-7.7-3.6-14.4-6.7-20.2
	c2.1-5.8,15.6-39.5,40.3-37.1l0.3-3.1c-24.8-2.4-38.6,26.7-42.6,36.8c-4.5-7.1-10.5-12.7-18.1-16.5c-1-0.5-2.1-1-3.2-1.5
	C-124.7,130.5-94.5,101.3-67,107.2z M-301.8,276.6c-29.4-24-33-64.8-33.1-65.1c0-7.7,2.8-14.3,8.3-19.7c16.5-16.2,53-17.5,62.8-17.5
	c-6.6,14-5.8,31.4-2.8,46.5c-7.6-4.5-29.6-15.6-56.5-12.2l0.4,3.1c30.3-3.9,54.9,11.9,57,13.3c4,17.3,10.4,30.8,10.5,31.1
	c6.7,16.7,14.6,28.6,22.6,37C-260.9,296.4-284.2,290.9-301.8,276.6z M-252.4,254.8c-0.4-0.7-35.3-74.6,8.8-96.9
	c0.7-0.4,73.4-36.4,113.6-15.7c13.5,7,22,19.7,25.1,38c0.2,1,20,96.1-27.9,117.8l-1.7-0.7l-0.2,1.6c-1.5,0.6-3.1,1.1-4.7,1.6
	c-2.1-6.3-4-17.4-4.5-36.7l-3,0.1c0.7,28.6,4.6,44.6,11.7,47.7c3.9,1.7,7-1.1,7.2-1.3l4.5-4.1l-5.9,1.5c-0.8,0.2-1,0-1.2-0.2
	c-0.9-0.8-1.2-3.5-1.2-5.8c4.6,1.5,8.1,1.4,10.6-0.3c0.2-0.1,0.4-0.3,0.6-0.5c0.7,11.9-1.6,20.7-6.9,26.4
	c-6.8,7.2-16.3,6.4-16.5,6.4c-31,0-47.2-49.3-47.3-49.8l-2.9,1c0.3,1,4.1,12.4,11.3,24.3C-188.2,310.3-227.4,316.9-252.4,254.8z
	 M-252.7,427.4c-1.6,0-3.3-0.1-5-0.3c-1.6-0.2-39.1-4.4-36.6-35.3c0.1-0.4,6.7-38.6,41.4-38.6c0.6,0,1.2,0,1.7,0
	c1.3,0.1,31.1,3.1,29.8,38.3C-221.4,393-221.8,427.4-252.7,427.4z M-155,422.2c-8-15.4-3.8-48.7-2.7-56.3c0.1,0,0.2,0,0.3,0
	c4,0,7.9-2.3,11.6-6.8l-2.3-2c-3.5,4.2-7,6.1-10.5,5.6c-7.5-1.2-12.7-13.3-12.7-13.5l-2.8,1.2c0.2,0.5,5.2,12.2,13.3,14.9
	c-1.1,7.6-5.3,40.4,2.5,57.2c-38.2,25.8-64.9,1.3-69.5-3.4c9.1-11.4,9.3-27.4,9.3-27.6c0.7-19.5-7.8-29.9-16.3-35.4
	c12.4-12.2,20.6-40.5,22.7-48.2c8.6,3.9,16.3,4.8,21.9,4.8c5.2,0,8.4-0.8,8.5-0.9l-0.3-1.2c8.3,13,20.8,26,37.7,26c0,0,0,0,0,0
	c0.1,0,0.5,0.1,1.3,0.1c3.1,0,11.3-0.7,17.6-7.3c5.7-6,8.3-15.2,7.8-27.3c5.3,13,15.5,34.8,27.3,44.4c-33,15.9-23,55.4-22.8,55.9
	c3,8.6,8.1,13.9,13.8,17.1C-126.1,446.2-152.2,424.7-155,422.2z M-42.6,401.7c-3.3,7.7-10,13.2-19.8,16.5c-0.1,0-8.1,2.8-17.7,2.8
	c-15.4,0-25.5-6.6-30-19.5c-0.4-1.6-9.9-39.2,23.4-53.2c0.1,0,4.6-1.6,10.9-1.6c10.1,0,23.8,4.2,31.9,24
	C-43.9,370.8-36.5,387.5-42.6,401.7z"/>
</svg>
