<?xml version="1.0" encoding="utf-8"?>
<!-- Generator: Adobe Illustrator 19.1.0, SVG Export Plug-In . SVG Version: 6.00 Build 0)  -->
<svg version="1.1" id="Layer_1" xmlns="http://www.w3.org/2000/svg" xmlns:xlink="http://www.w3.org/1999/xlink" x="0px" y="0px"
	 viewBox="-120.4 140.1 151 26.2" style="enable-background:new -120.4 140.1 151 26.2;" xml:space="preserve">
<style type="text/css">
	.st0{fill:#424242;}
</style>
<g>
	<g>
		<path class="st0" d="M-116.2,158.7c0.4,0,0.8-0.2,1.2-0.4c0.4-0.2,0.7-0.6,1-1c0.3-0.4,0.6-0.8,0.9-1.3c0.3-0.5,0.5-1,0.8-1.6
			c0.2-0.5,0.5-1.1,0.7-1.6c0.2-0.5,0.4-1,0.6-1.5c0.2-0.4,0.3-0.8,0.5-1.1c0.1-0.3,0.3-0.4,0.4-0.4c0.1,0,0.1,0,0.2,0
			c0.1,0,0.2,0.1,0.2,0.1c-0.1,0.8-0.2,1.7-0.4,2.5c-0.2,0.8-0.4,1.6-0.7,2.3c-0.3,0.7-0.6,1.4-0.9,2c-0.4,0.6-0.8,1.2-1.2,1.7
			c-0.5,0.5-1,0.9-1.6,1.3c-0.6,0.4-1.2,0.6-1.9,0.8c-0.7-0.3-1.2-0.7-1.7-1.1c-0.5-0.4-0.9-0.8-1.2-1.2c-0.3-0.4-0.6-0.9-0.7-1.3
			c-0.2-0.5-0.2-0.9-0.2-1.4c0-0.4,0-0.8,0.1-1.2c0.1-0.4,0.2-0.8,0.4-1.2c0.2-0.4,0.3-0.8,0.5-1.2c0.2-0.4,0.4-0.8,0.6-1.1
			c0.2-0.4,0.4-0.7,0.7-1.1c0.2-0.4,0.4-0.7,0.7-1c0.2-0.3,0.4-0.5,0.5-0.7c0.2-0.1,0.3-0.2,0.5-0.2c0.1,0,0.2,0,0.3,0.1
			c0.1,0.1,0.3,0.1,0.4,0.2c0.1,0.1,0.3,0.2,0.4,0.3c0.1,0.1,0.2,0.2,0.3,0.3c-0.1,0.3-0.2,0.6-0.3,1c-0.2,0.4-0.3,0.8-0.5,1.2
			c-0.2,0.4-0.4,0.8-0.6,1.3c-0.2,0.4-0.4,0.9-0.6,1.3c-0.2,0.4-0.3,0.9-0.4,1.3c-0.1,0.4-0.2,0.9-0.2,1.3c0,0.2,0,0.4,0.1,0.7
			c0.1,0.2,0.2,0.5,0.3,0.7c0.1,0.2,0.3,0.5,0.5,0.7C-116.7,158.4-116.5,158.6-116.2,158.7z"/>
		<path class="st0" d="M-111.2,157.3c0.1-0.1,0.2-0.3,0.3-0.4c0.1-0.2,0.3-0.3,0.4-0.5c0.2-0.2,0.3-0.3,0.5-0.4
			c0.2-0.1,0.4-0.2,0.5-0.1c0.1,0,0.2,0,0.3,0.1c0.1,0.1,0.2,0.2,0.3,0.3c0.1,0.1,0.1,0.2,0.2,0.3c0.1,0.1,0.1,0.2,0.1,0.3
			c0.1-0.2,0.2-0.3,0.4-0.5c0.2-0.2,0.4-0.3,0.5-0.5c0.2-0.1,0.4-0.3,0.6-0.4c0.2-0.1,0.3-0.1,0.5-0.1c0.2,0,0.5,0.1,0.7,0.2
			c0.2,0.1,0.4,0.3,0.5,0.5c0.2,0.2,0.3,0.4,0.4,0.7c0.1,0.2,0.1,0.4,0.1,0.6c0,0.2,0,0.4-0.1,0.6c0,0.2-0.1,0.4-0.1,0.5
			c0,0.2-0.1,0.4-0.1,0.6c0,0.2-0.1,0.4-0.1,0.6c0,0.1,0,0.2,0.1,0.3c0,0.1,0.1,0.1,0.2,0.1c0.1,0,0.2,0,0.4-0.1
			c0.2-0.1,0.4-0.2,0.6-0.4c0.2-0.2,0.4-0.3,0.7-0.6c0.2-0.2,0.5-0.4,0.7-0.7c0.2-0.2,0.4-0.4,0.6-0.7c0.2-0.2,0.4-0.4,0.5-0.6
			c0.2,0.3,0.4,0.6,0.6,0.9c-0.1,0.2-0.3,0.4-0.5,0.6c-0.2,0.2-0.4,0.5-0.6,0.8c-0.2,0.3-0.5,0.5-0.8,0.8c-0.3,0.3-0.6,0.5-0.9,0.7
			c-0.3,0.2-0.7,0.3-1,0.4c-0.4,0.1-0.7,0.2-1.1,0.1c-0.3,0-0.5-0.1-0.6-0.2c-0.2-0.1-0.3-0.3-0.4-0.5c-0.1-0.2-0.1-0.4-0.2-0.7
			c0-0.3,0-0.5,0-0.8c0-0.2,0-0.3,0-0.5c0-0.2,0-0.3,0-0.4c0-0.1,0-0.2,0-0.3c0-0.1,0-0.1-0.1-0.1c-0.2,0-0.3,0.1-0.5,0.3
			c-0.1,0.2-0.3,0.4-0.4,0.6c-0.1,0.2-0.3,0.5-0.4,0.8c-0.1,0.3-0.3,0.5-0.4,0.7c-0.1,0.2-0.3,0.4-0.4,0.5c-0.1,0.1-0.3,0.2-0.4,0.2
			c-0.1,0-0.3,0-0.4-0.1c-0.1,0-0.3-0.1-0.4-0.1c-0.1,0-0.2-0.1-0.3-0.1c-0.1-0.1-0.2-0.1-0.2-0.2c0-0.1,0.1-0.1,0.1-0.3
			c0.1-0.1,0.1-0.2,0.2-0.4c0.1-0.1,0.1-0.3,0.2-0.5c0.1-0.2,0.1-0.3,0.2-0.5c0.1-0.2,0.1-0.3,0.1-0.4c0-0.1,0.1-0.3,0.1-0.3
			c0-0.2,0-0.3-0.1-0.4c0-0.1-0.1-0.1-0.1-0.1c0,0-0.1,0-0.1,0.1c-0.1,0-0.1,0.1-0.2,0.1c-0.1,0-0.1,0.1-0.2,0.1
			c-0.1,0-0.1,0.1-0.1,0.1C-110.8,157.8-111,157.5-111.2,157.3z"/>
		<path class="st0" d="M-94.8,156.9c0.1,0.1,0.1,0.2,0.1,0.2c0,0.1,0,0.2,0,0.3c0,0.2,0,0.3-0.1,0.5c-0.1,0.2-0.2,0.3-0.2,0.4
			c-0.3,0.4-0.7,0.7-1,0.9c-0.3,0.2-0.7,0.4-1,0.5c-0.3,0.1-0.7,0.2-1,0.2c-0.3,0-0.6,0.1-1,0.1c0,0-0.1,0-0.1,0
			c-0.2,0.6-0.4,1.1-0.6,1.5c-0.2,0.5-0.4,0.9-0.6,1.3c-0.2,0.4-0.4,0.7-0.6,1.1c-0.2,0.3-0.5,0.6-0.7,0.9c-0.3,0.3-0.5,0.6-0.8,0.8
			c-0.3,0.3-0.6,0.5-1,0.8c0,0-0.1,0-0.2,0c-0.1,0-0.2,0-0.3,0c-0.1,0-0.3,0-0.4-0.1c-0.1,0-0.3-0.1-0.4-0.1c-0.1,0-0.2-0.1-0.3-0.1
			c-0.1,0-0.2,0-0.2-0.1c0.1-0.2,0.3-0.4,0.5-0.6c0.2-0.2,0.4-0.5,0.7-0.8c0.2-0.3,0.5-0.6,0.8-1c0.3-0.4,0.5-0.8,0.8-1.3
			c0.3-0.5,0.5-1,0.8-1.6c0.2-0.6,0.5-1.2,0.6-1.9c0,0,0-0.1-0.1-0.1c-0.1-0.1-0.1-0.2-0.2-0.3c-0.1-0.1-0.2-0.2-0.3-0.3
			c-0.1-0.1-0.1-0.1-0.2-0.2c0,0,0-0.1,0-0.1c0,0,0-0.1,0-0.1c0-0.1,0-0.1,0-0.2c0-0.1,0-0.1,0.1-0.2c0.1-0.2,0.3-0.4,0.5-0.5
			c0.2-0.2,0.4-0.3,0.6-0.4c0.2-0.1,0.3-0.3,0.5-0.4c0.1-0.1,0.2-0.2,0.3-0.3c0.2-0.6,0.5-1.3,0.8-2.1c0.3-0.8,0.7-1.6,1.1-2.5
			c0.4-0.9,0.8-1.7,1.3-2.6c0.5-0.9,0.9-1.7,1.5-2.4c0.3-0.1,0.5-0.1,0.8-0.2c-0.3,0.9-0.6,1.7-0.9,2.5c-0.3,0.8-0.6,1.6-1,2.3
			c-0.3,0.8-0.6,1.5-0.9,2.3c-0.3,0.7-0.5,1.5-0.8,2.3c-0.1,0.3-0.2,0.5-0.2,0.8c-0.1,0.3-0.2,0.5-0.2,0.7c-0.1,0.2-0.1,0.4-0.2,0.7
			c0,0.2-0.1,0.4-0.1,0.6c0.2,0,0.4,0,0.7,0c0.2,0,0.5,0,0.7-0.1c0.2,0,0.5-0.1,0.8-0.2c0.3-0.1,0.6-0.2,0.8-0.4
			c0.3-0.2,0.6-0.4,0.9-0.7C-94.9,156.7-94.9,156.8-94.8,156.9z"/>
		<path class="st0" d="M-87.4,156.8c-0.1,0.2-0.2,0.4-0.3,0.6c-0.1,0.2-0.3,0.3-0.5,0.5c-0.2,0.1-0.4,0.2-0.6,0.3
			c-0.2,0.1-0.4,0.1-0.6,0.1c-0.2,0-0.5,0-0.6-0.1c-0.2,0.4-0.3,0.7-0.5,1c-0.2,0.3-0.4,0.5-0.7,0.7c-0.2,0.2-0.5,0.4-0.8,0.6
			c-0.3,0.2-0.6,0.3-0.9,0.5c0,0-0.1,0-0.2,0c-0.1,0-0.3,0-0.4-0.1c-0.2-0.1-0.3-0.1-0.5-0.2c-0.2-0.1-0.4-0.2-0.5-0.3
			c-0.2-0.1-0.4-0.2-0.5-0.3c-0.2-0.1-0.3-0.2-0.4-0.3c-0.1-0.1-0.2-0.2-0.3-0.2c0-0.1,0-0.1,0-0.2c0-0.1,0-0.2,0-0.3
			c0-0.1,0-0.2,0-0.2c0-0.1,0-0.1,0-0.2c0-0.2,0-0.5,0.1-0.8c0.1-0.3,0.2-0.6,0.3-0.8c0.1-0.3,0.3-0.6,0.5-0.8
			c0.2-0.3,0.3-0.5,0.5-0.8c0.1-0.2,0.3-0.4,0.5-0.6c0.2-0.2,0.5-0.4,0.7-0.6c0.3-0.2,0.5-0.4,0.8-0.5c0.3-0.1,0.5-0.2,0.8-0.2
			c0.3,0,0.5,0,0.8,0.2c0.2,0.2,0.5,0.4,0.7,0.6c0.2,0.3,0.3,0.5,0.5,0.8c0.1,0.3,0.2,0.6,0.2,0.8c0,0.1,0,0.1,0,0.2
			c0,0.1,0,0.1,0,0.2c0,0.1,0,0.1,0,0.2c0,0.1,0,0.1,0,0.2c0,0,0,0,0.1,0c0,0,0,0,0.1,0c0,0,0,0,0.1,0c0,0,0.1,0,0.2,0
			c0.1,0,0.2,0,0.2,0c0.1,0,0.2,0,0.3-0.1c0.1,0,0.2-0.1,0.3-0.2c0.1-0.1,0.2-0.2,0.3-0.3C-88,156.3-87.7,156.6-87.4,156.8z
			 M-91.7,156c-0.1,0-0.1-0.1-0.2-0.1c-0.1,0-0.1,0-0.2,0.1c-0.1,0-0.1,0.1-0.2,0.1c-0.2,0.2-0.4,0.5-0.5,0.7
			c-0.2,0.3-0.3,0.5-0.4,0.7c-0.1,0.2-0.2,0.5-0.3,0.7c-0.1,0.2-0.1,0.4-0.1,0.6c0,0.1,0,0.1,0.1,0.1c0,0,0.1,0,0.1,0
			c0.1,0,0.2,0,0.3-0.1c0.1-0.1,0.3-0.2,0.4-0.3c0.1-0.1,0.3-0.2,0.4-0.3c0.1-0.1,0.2-0.2,0.3-0.3c0.1-0.2,0.3-0.3,0.4-0.5
			c0.1-0.2,0.2-0.4,0.3-0.6c-0.1-0.1-0.1-0.1-0.2-0.2c0-0.1-0.1-0.2-0.1-0.2c0-0.1,0-0.2,0-0.3C-91.7,156.2-91.7,156.1-91.7,156z"/>
		<path class="st0" d="M-88.7,156.7c0-0.1,0.1-0.2,0.2-0.3c0.1-0.1,0.1-0.2,0.2-0.3c0.1-0.1,0.1-0.2,0.1-0.4c0-0.1,0-0.3,0.1-0.5
			c0-0.2,0-0.4,0-0.6c0-0.2,0-0.4,0-0.6c0-0.2,0-0.3,0.1-0.5c0-0.1,0.1-0.3,0.1-0.3c0.1,0,0.2-0.1,0.3-0.1c0.1,0,0.2,0,0.3,0.1
			c0.1,0.1,0.2,0.1,0.2,0.2c0.1,0.1,0.2,0.1,0.3,0.2c0.1,0.1,0.2,0.1,0.4,0.1c0.5-0.1,1-0.2,1.4-0.4c0.5-0.2,0.9-0.5,1.3-0.8
			c0.2-0.2,0.4-0.4,0.7-0.7c0.2-0.3,0.4-0.5,0.6-0.8c0,0,0.1-0.1,0.1-0.1c0.1,0,0.1,0,0.1-0.1c0.1,0.1,0.2,0.2,0.3,0.3
			c0.1,0.1,0.2,0.3,0.2,0.4c0.1,0.2,0.1,0.3,0.2,0.5c0,0.2,0.1,0.3,0.1,0.4c0,0.1-0.1,0.2-0.2,0.3c-0.1,0.1-0.3,0.2-0.4,0.4
			c-0.1,0.2-0.3,0.4-0.4,0.6c-0.1,0.2-0.3,0.5-0.4,0.8c-0.1,0.3-0.3,0.5-0.4,0.8c-0.1,0.3-0.3,0.5-0.4,0.7c-0.1,0.2-0.2,0.4-0.3,0.6
			c-0.2,0.4-0.4,0.7-0.5,1.1c-0.1,0.3-0.2,0.7-0.2,1c0,0.2,0,0.4,0.1,0.5c0,0.1,0.1,0.1,0.1,0.1c0.1,0,0.3-0.1,0.5-0.2
			c0.2-0.1,0.4-0.3,0.6-0.4c0.2-0.2,0.4-0.4,0.7-0.6c0.2-0.2,0.5-0.5,0.7-0.7c0.2-0.2,0.4-0.5,0.6-0.7c0.2-0.2,0.3-0.4,0.4-0.6
			c0.2-0.2,0.3-0.4,0.4-0.6c0.1-0.2,0.2-0.3,0.2-0.3c0.1-0.1,0.1-0.1,0.2-0.1c0.1,0,0.2,0,0.3,0.1c0.1,0.1,0.2,0.1,0.2,0.2
			c0.1,0.1,0.1,0.1,0.1,0.2c0,0.1,0,0.2-0.1,0.3c0,0.1-0.1,0.2-0.2,0.4c-0.1,0.1-0.1,0.3-0.2,0.4c-0.1,0.1-0.2,0.3-0.3,0.4
			c-0.2,0.3-0.4,0.6-0.6,1c-0.2,0.3-0.4,0.7-0.7,1c-0.2,0.3-0.5,0.6-0.8,0.9c-0.3,0.3-0.7,0.6-1.1,0.8c-0.2,0-0.5-0.1-0.8-0.1
			c-0.3-0.1-0.5-0.1-0.8-0.2c-0.3-0.1-0.5-0.2-0.7-0.3c-0.2-0.1-0.5-0.2-0.7-0.3c-0.3-0.2-0.5-0.5-0.5-0.9c0-0.3,0.1-0.6,0.2-0.9
			c0.1-0.3,0.2-0.7,0.4-1c0.1-0.4,0.3-0.7,0.5-1c0.2-0.3,0.3-0.6,0.4-0.8c-0.1,0.1-0.2,0.1-0.3,0.2c-0.1,0-0.2,0.1-0.3,0.1
			c-0.1,0-0.3,0-0.4,0c-0.1,0-0.2-0.1-0.3-0.2c0,0.2-0.1,0.4-0.2,0.7c-0.1,0.2-0.2,0.5-0.3,0.7c-0.1,0.2-0.2,0.4-0.4,0.5
			c-0.1,0.1-0.3,0.2-0.4,0.2c-0.1,0-0.1,0-0.2-0.1C-88.6,157.2-88.7,156.9-88.7,156.7z"/>
		<path class="st0" d="M-71.8,154.4c0.1,0.2,0.1,0.3,0.1,0.5c0,0.2,0,0.4-0.1,0.5c-0.1,0.2-0.1,0.3-0.2,0.5
			c-0.1,0.1-0.1,0.3-0.2,0.3c-0.2,0.3-0.4,0.5-0.7,0.8c-0.2,0.2-0.5,0.5-0.7,0.7c-0.2,0.2-0.5,0.4-0.7,0.6c-0.2,0.2-0.5,0.3-0.6,0.5
			c-0.2,0.1-0.4,0.3-0.5,0.3c-0.1,0.1-0.3,0.2-0.3,0.2c-0.2,0.3-0.3,0.6-0.5,0.9c-0.2,0.4-0.4,0.7-0.7,1.1c-0.3,0.4-0.5,0.8-0.9,1.2
			c-0.3,0.4-0.7,0.7-1.2,1.1c-0.3,0.2-0.6,0.3-0.9,0.5c-0.4,0.1-0.8,0.2-1.2,0.2c-0.3,0-0.7,0-1,0c-0.3,0-0.6-0.1-0.9-0.1
			c-0.3-0.1-0.5-0.2-0.6-0.3c-0.2-0.1-0.2-0.3-0.2-0.4c0-0.2,0.1-0.4,0.2-0.6c0.2-0.2,0.4-0.4,0.6-0.6c0.3-0.2,0.6-0.4,0.9-0.7
			c0.3-0.2,0.7-0.4,1.1-0.7c0.4-0.2,0.7-0.4,1.1-0.6c0.4-0.2,0.7-0.4,1.1-0.6c0.3-0.2,0.6-0.3,0.9-0.5c0.3-0.2,0.5-0.3,0.6-0.4
			c-0.2,0.1-0.4,0.2-0.6,0.2c-0.2,0.1-0.4,0.1-0.5,0.1c-0.3,0-0.6,0-0.9,0c-0.3-0.1-0.6-0.2-0.8-0.3c-0.2-0.1-0.4-0.3-0.6-0.5
			c-0.1-0.2-0.2-0.5-0.2-0.8c0-0.2,0-0.5,0.1-0.8c0-0.3,0.1-0.6,0.2-1c0.1-0.3,0.2-0.7,0.4-1c0.1-0.3,0.3-0.7,0.5-1
			c0.2-0.3,0.5-0.6,0.7-0.8c0.3-0.2,0.6-0.4,1-0.5c0.1,0,0.2,0,0.3,0c0.1,0,0.1,0,0.2,0.1c0.1,0,0.1,0.1,0.1,0.1
			c0,0,0.1,0.1,0.1,0.1c0.1-0.2,0.1-0.3,0.2-0.3c0.1-0.1,0.1-0.1,0.2-0.1c0.1,0,0.1,0,0.2,0c0.1,0,0.2,0,0.3,0c0.3,0,0.6,0,0.8,0.2
			c0.3,0.2,0.5,0.4,0.7,0.7c0.2,0.3,0.3,0.6,0.4,0.9c0.1,0.3,0.2,0.6,0.2,0.9c0,0.2,0,0.4,0,0.6c0,0.2-0.1,0.4-0.1,0.5
			c0,0.2-0.1,0.3-0.2,0.4c-0.1,0.1-0.1,0.2-0.2,0.3c1-0.9,2-1.9,3-2.9C-71.9,154.2-71.8,154.3-71.8,154.4z M-81.6,163.4
			c0,0.1,0,0.1,0.1,0.1c0.1,0,0.2,0,0.3,0c0.1,0,0.3,0,0.4-0.1c0.2,0,0.3-0.1,0.4-0.2c0.3-0.2,0.5-0.3,0.7-0.5
			c0.2-0.2,0.4-0.4,0.6-0.6c0.2-0.2,0.4-0.5,0.6-0.7c0.2-0.3,0.4-0.5,0.6-0.8c-0.1,0.1-0.3,0.2-0.5,0.4c-0.2,0.2-0.5,0.3-0.8,0.5
			c-0.3,0.2-0.6,0.4-0.9,0.6c-0.3,0.2-0.6,0.4-0.8,0.6c-0.2,0.2-0.4,0.3-0.6,0.5C-81.5,163.2-81.6,163.3-81.6,163.4z M-78,155.1
			c-0.3,0.4-0.5,0.8-0.6,1.2c-0.1,0.4-0.2,0.9-0.2,1.3c0,0.2,0,0.3,0.1,0.4c0,0.1,0.1,0.1,0.2,0.1c0.1,0,0.3-0.1,0.4-0.2
			c0.2-0.1,0.3-0.2,0.5-0.3c0.2-0.1,0.3-0.3,0.5-0.5c0.2-0.2,0.3-0.3,0.4-0.5c0.1-0.2,0.2-0.4,0.3-0.5c0.1-0.2,0.1-0.4,0.1-0.5
			c0-0.3,0-0.5-0.1-0.6c-0.1-0.2-0.2-0.3-0.3-0.4c-0.1-0.1-0.2-0.2-0.3-0.2c-0.1,0-0.2,0-0.4,0c0,0-0.1,0-0.2,0.1
			c-0.1,0.1-0.2,0.2-0.2,0.3c-0.1,0.1-0.1,0.2-0.2,0.3C-77.9,155-78,155-78,155.1z"/>
		<path class="st0" d="M-64.7,154.3c-0.1,0.2-0.3,0.4-0.5,0.7c-0.2,0.3-0.4,0.5-0.7,0.8c-0.3,0.3-0.5,0.6-0.8,0.9
			c-0.3,0.3-0.6,0.5-0.9,0.8c-0.3,0.2-0.6,0.4-0.8,0.6c-0.3,0.2-0.5,0.2-0.7,0.3c0,0-0.1,0-0.2,0c-0.1,0-0.2,0-0.4-0.1
			c-0.1,0-0.3-0.1-0.4-0.1c-0.1,0-0.3-0.1-0.4-0.1c-0.1,0-0.3-0.1-0.4-0.1c-0.1,0-0.2-0.1-0.3-0.1c-0.2-0.1-0.4-0.2-0.5-0.3
			c-0.2-0.1-0.3-0.3-0.4-0.4c-0.1-0.2-0.2-0.3-0.3-0.6c-0.1-0.2-0.1-0.4-0.1-0.7c0-0.3,0.1-0.7,0.2-1.1c0.1-0.4,0.3-0.8,0.5-1.3
			c0.2-0.4,0.4-0.9,0.7-1.3c0.3-0.4,0.6-0.8,0.9-1.1c0.3-0.3,0.6-0.6,1-0.8c0.3-0.2,0.7-0.4,1-0.4c0.5-0.1,0.9,0,1.2,0.3
			c0.3,0.3,0.4,0.7,0.4,1.3c0,0.3-0.1,0.7-0.2,0.9c-0.1,0.3-0.2,0.6-0.4,0.8c-0.2,0.3-0.4,0.5-0.6,0.7c-0.2,0.2-0.5,0.4-0.7,0.6
			c-0.2,0.2-0.5,0.4-0.8,0.5c-0.3,0.2-0.5,0.3-0.7,0.4c-0.1,0.2-0.1,0.3-0.2,0.4c0,0.1-0.1,0.3-0.1,0.5c0,0.2,0,0.4,0.1,0.5
			c0.1,0.1,0.3,0.1,0.6,0.1c0.3,0,0.6-0.2,0.9-0.4c0.3-0.2,0.6-0.5,1-0.8c0.3-0.3,0.6-0.6,0.9-0.9c0.3-0.3,0.5-0.6,0.8-0.9
			c0.1-0.1,0.1-0.2,0.2-0.3c0.1-0.1,0.2-0.3,0.3-0.4c0.1-0.1,0.2-0.3,0.4-0.4c0.1-0.1,0.3-0.2,0.4-0.2c0,0,0.1,0,0.2,0
			c0.1,0,0.1,0,0.2,0c0,0,0.1,0,0.1,0.1c0,0,0,0.1,0,0.2c0,0.3,0,0.5-0.1,0.8C-64.5,153.9-64.6,154.1-64.7,154.3z M-69.4,153.1
			c0.2,0,0.3-0.1,0.5-0.3c0.2-0.1,0.3-0.3,0.4-0.4c0.1-0.2,0.3-0.4,0.4-0.6c0.1-0.2,0.2-0.4,0.3-0.6c0,0,0,0-0.1,0c0,0,0,0-0.1,0
			c-0.2,0.1-0.3,0.2-0.5,0.3c-0.2,0.1-0.3,0.3-0.4,0.5c-0.1,0.2-0.2,0.4-0.3,0.6C-69.3,152.8-69.4,152.9-69.4,153.1z"/>
		<path class="st0" d="M-58,148.7c-0.2,0.1-0.4,0.2-0.7,0.4c-0.3,0.1-0.6,0.2-0.9,0.4c-0.3,0.1-0.6,0.2-0.8,0.3
			c-0.3,0.1-0.5,0.2-0.6,0.2c-0.2,0.1-0.3,0.1-0.4,0.1c-0.1,0-0.2,0.1-0.3,0.1c-0.1,0-0.1,0.1-0.2,0.1c-0.1,0-0.1,0.1-0.2,0.2
			c0,0.1-0.1,0.2-0.2,0.3c-0.1,0.1-0.1,0.3-0.2,0.5c-0.1,0.2-0.2,0.5-0.3,0.8c-0.1,0.3-0.3,0.7-0.4,1.1c-0.1,0.4-0.2,0.8-0.3,1.1
			c-0.1,0.4-0.1,0.7-0.1,1c0,0.1,0,0.2,0,0.3c0,0.1,0.1,0.2,0.1,0.3c0.2,0,0.4-0.1,0.6-0.2c0.2-0.1,0.5-0.3,0.7-0.5
			c0.3-0.2,0.5-0.4,0.8-0.7c0.3-0.3,0.6-0.5,0.8-0.8c0.3-0.3,0.5-0.6,0.7-0.9c0.2-0.3,0.4-0.6,0.6-0.8c0.3,0.2,0.7,0.3,1,0.5
			c-0.1,0.3-0.3,0.6-0.5,1c-0.2,0.4-0.4,0.7-0.7,1.1c-0.3,0.4-0.5,0.7-0.8,1.1c-0.3,0.3-0.6,0.7-0.9,0.9c-0.3,0.3-0.6,0.5-0.9,0.7
			c-0.3,0.2-0.6,0.3-0.8,0.3c-0.2,0-0.4-0.1-0.6-0.1c-0.2,0-0.5-0.1-0.7-0.1c-0.3,0-0.5-0.1-0.7-0.1c-0.2-0.1-0.5-0.1-0.7-0.2
			c-0.2-0.1-0.3-0.2-0.5-0.4c-0.1-0.2-0.2-0.4-0.2-0.6c0-0.7,0.1-1.4,0.3-2.2c0.2-0.8,0.5-1.6,0.9-2.5c-0.1,0-0.3,0.1-0.5,0.2
			c-0.2,0.1-0.4,0.1-0.6,0.2c-0.2,0.1-0.4,0.1-0.6,0.2c-0.2,0.1-0.4,0.1-0.6,0.2c-0.2,0.1-0.3,0.1-0.5,0.1c-0.1,0-0.2,0-0.3,0
			c-0.2,0-0.3-0.1-0.3-0.2c0-0.1,0.1-0.2,0.2-0.3c0.1-0.1,0.3-0.2,0.5-0.4c0.2-0.1,0.4-0.3,0.7-0.4c0.2-0.1,0.5-0.2,0.7-0.3
			c0.2-0.1,0.4-0.2,0.6-0.2c0.3-0.1,0.6-0.2,0.7-0.3c0.2-0.1,0.3-0.2,0.4-0.2c0.1-0.1,0.2-0.2,0.3-0.3c0.1-0.1,0.2-0.3,0.3-0.6
			c0.1-0.1,0.2-0.3,0.3-0.5c0.1-0.2,0.2-0.5,0.3-0.7c0.1-0.3,0.3-0.5,0.4-0.8c0.1-0.3,0.3-0.5,0.4-0.7c0.1-0.2,0.3-0.4,0.4-0.6
			c0.1-0.1,0.3-0.2,0.4-0.2c0.3,0,0.6,0,0.8,0.1c0.2,0.1,0.5,0.3,0.7,0.4c-0.3,0.5-0.6,1-0.9,1.6c-0.3,0.5-0.6,1.1-0.8,1.6
			c0.1,0,0.3-0.1,0.5-0.1c0.2-0.1,0.4-0.1,0.7-0.2c0.2-0.1,0.5-0.2,0.7-0.2c0.3-0.1,0.5-0.2,0.7-0.2c0.2-0.1,0.5-0.1,0.7-0.2
			c0.2-0.1,0.4-0.1,0.5-0.2C-57.8,148.2-57.9,148.4-58,148.7z"/>
		<path class="st0" d="M-51.7,147.9c-0.2,0.1-0.4,0.2-0.7,0.3c-0.3,0.1-0.6,0.2-0.9,0.3c-0.3,0.1-0.6,0.2-0.8,0.3
			c-0.3,0.1-0.5,0.2-0.6,0.2c-0.2,0.1-0.3,0.1-0.4,0.1c-0.1,0-0.2,0.1-0.3,0.1c-0.1,0-0.1,0.1-0.2,0.1c-0.1,0-0.1,0.1-0.2,0.2
			c0,0.1-0.1,0.2-0.2,0.3c-0.1,0.1-0.1,0.3-0.2,0.4c-0.1,0.2-0.2,0.4-0.3,0.8c-0.1,0.3-0.3,0.7-0.4,1.1c-0.1,0.4-0.2,0.7-0.3,1.1
			c-0.1,0.4-0.1,0.7-0.1,1c0,0.1,0,0.2,0,0.3c0,0.1,0.1,0.2,0.1,0.3c0.2,0,0.4-0.1,0.6-0.2c0.2-0.1,0.5-0.3,0.7-0.5
			c0.3-0.2,0.5-0.4,0.8-0.7c0.3-0.3,0.6-0.5,0.8-0.8c0.3-0.3,0.5-0.6,0.7-0.8c0.2-0.3,0.4-0.5,0.6-0.8c0.3,0.2,0.7,0.3,1,0.5
			c-0.1,0.3-0.3,0.6-0.5,0.9c-0.2,0.4-0.4,0.7-0.7,1.1c-0.3,0.4-0.5,0.7-0.8,1.1c-0.3,0.3-0.6,0.7-0.9,0.9c-0.3,0.3-0.6,0.5-0.9,0.7
			c-0.3,0.2-0.6,0.3-0.8,0.3c-0.2,0-0.4-0.1-0.6-0.1c-0.2,0-0.5-0.1-0.7-0.1c-0.3,0-0.5-0.1-0.7-0.1c-0.2-0.1-0.5-0.1-0.7-0.2
			c-0.2-0.1-0.3-0.2-0.5-0.4c-0.1-0.2-0.2-0.4-0.2-0.6c0-0.7,0.1-1.4,0.3-2.2c0.2-0.8,0.5-1.6,0.9-2.4c-0.1,0-0.3,0.1-0.5,0.2
			c-0.2,0.1-0.4,0.1-0.6,0.2c-0.2,0.1-0.4,0.1-0.6,0.2c-0.2,0.1-0.4,0.1-0.6,0.2c-0.2,0.1-0.3,0.1-0.5,0.1c-0.1,0-0.2,0-0.3,0
			c-0.2,0-0.3-0.1-0.3-0.2c0-0.1,0.1-0.2,0.2-0.3c0.1-0.1,0.3-0.2,0.5-0.4c0.2-0.1,0.4-0.3,0.7-0.4c0.2-0.1,0.5-0.2,0.7-0.3
			c0.2-0.1,0.4-0.2,0.6-0.2c0.3-0.1,0.6-0.2,0.7-0.3c0.2-0.1,0.3-0.2,0.4-0.2c0.1-0.1,0.2-0.2,0.3-0.3c0.1-0.1,0.2-0.3,0.3-0.5
			c0.1-0.1,0.2-0.3,0.3-0.5c0.1-0.2,0.2-0.4,0.3-0.7c0.1-0.2,0.3-0.5,0.4-0.8c0.1-0.3,0.3-0.5,0.4-0.7c0.1-0.2,0.3-0.4,0.4-0.5
			c0.1-0.1,0.3-0.2,0.4-0.2c0.3,0,0.6,0,0.8,0.1c0.2,0.1,0.5,0.2,0.7,0.4c-0.3,0.5-0.6,1-0.9,1.5c-0.3,0.5-0.6,1-0.8,1.6
			c0.1,0,0.3-0.1,0.5-0.1c0.2-0.1,0.4-0.1,0.7-0.2c0.2-0.1,0.5-0.1,0.7-0.2c0.3-0.1,0.5-0.1,0.7-0.2c0.2-0.1,0.5-0.1,0.7-0.2
			c0.2-0.1,0.4-0.1,0.5-0.1C-51.5,147.3-51.6,147.6-51.7,147.9z"/>
		<path class="st0" d="M-52.8,154.7c-0.2-0.4-0.4-0.9-0.5-1.3c-0.1-0.4-0.1-0.8,0-1.2c0.1-0.4,0.2-0.8,0.3-1.1
			c0.2-0.4,0.4-0.7,0.6-1c0.4-0.5,0.8-0.9,1.2-1.2c0.4-0.3,0.8-0.5,1.2-0.6c0.4-0.1,0.8-0.1,1.2,0.1c0.4,0.1,0.9,0.4,1.3,0.7
			c0.1-0.1,0.1-0.1,0.2-0.2c0.1-0.1,0.2-0.1,0.3-0.1c0.1,0,0.2,0,0.3,0c0.1,0,0.2,0.1,0.3,0.2c0.2,0.2,0.3,0.3,0.4,0.4
			c0.1,0.1,0.1,0.2,0.1,0.3c0,0.1,0,0.3-0.1,0.4c-0.1,0.2-0.2,0.4-0.3,0.6c-0.3,0.5-0.5,0.9-0.7,1.3c-0.2,0.4-0.3,0.9-0.4,1.3
			c0,0.2,0,0.3,0.2,0.2c0.1,0,0.4-0.2,0.6-0.4c0.3-0.2,0.6-0.5,0.9-0.8c0.3-0.3,0.7-0.7,1-1c0.4-0.4,0.7-0.7,1-1.1
			c0.3-0.3,0.6-0.7,0.8-0.9c0.2,0.1,0.3,0.3,0.3,0.4c0.1,0.1,0.1,0.3,0.1,0.4c0,0.1,0,0.3-0.1,0.4c0,0.1-0.1,0.2-0.1,0.3
			c-0.4,0.7-0.9,1.3-1.5,1.9c-0.6,0.6-1.2,1.1-1.8,1.5c-0.3,0.2-0.6,0.3-0.8,0.5c-0.3,0.1-0.6,0.2-0.8,0.2c-0.3,0-0.5,0.1-0.8,0
			c-0.3,0-0.5-0.1-0.7-0.2c-0.1-0.1-0.2-0.2-0.3-0.2c0-0.1-0.1-0.2-0.1-0.3c0-0.1,0-0.2,0-0.3c0-0.1,0.1-0.2,0.1-0.3
			c-0.4,0.3-0.8,0.5-1.2,0.7c-0.4,0.2-0.8,0.3-1.1,0.3c-0.3,0-0.6,0.1-0.9,0C-52.6,154.9-52.7,154.8-52.8,154.7z M-49.1,149.6
			c-0.1,0-0.2,0.1-0.3,0.2c-0.1,0.1-0.3,0.3-0.4,0.5c-0.1,0.2-0.3,0.4-0.4,0.6c-0.1,0.2-0.3,0.4-0.4,0.7c-0.1,0.2-0.2,0.4-0.3,0.6
			c-0.1,0.2-0.1,0.4-0.2,0.5c0,0.2,0,0.3,0,0.4c0,0.1,0.1,0.1,0.3,0.1c0.3,0,0.6-0.1,0.9-0.4c0.3-0.2,0.6-0.5,0.8-0.8
			c0.2-0.3,0.5-0.6,0.7-1c0.2-0.4,0.4-0.7,0.5-1c0-0.1,0-0.1-0.1-0.2c-0.1-0.1-0.2-0.1-0.3-0.2c-0.1,0-0.3-0.1-0.4-0.1
			C-48.8,149.6-48.9,149.6-49.1,149.6z"/>
		<path class="st0" d="M-34.6,149.6c-0.4,0.4-0.9,0.7-1.4,0.9c-0.5,0.2-1,0.4-1.5,0.5c0,0,0,0.1-0.1,0.3c-0.1,0.1-0.2,0.3-0.3,0.5
			c-0.1,0.2-0.3,0.4-0.4,0.6c-0.2,0.2-0.3,0.4-0.5,0.6c-0.3,0.3-0.6,0.7-1,1c-0.4,0.3-0.7,0.6-1.1,0.9c-0.1,0-0.2,0-0.4-0.1
			c-0.2,0-0.3-0.1-0.5-0.1c-0.2,0-0.4-0.1-0.6-0.2c-0.2-0.1-0.4-0.1-0.6-0.2c-0.2-0.1-0.3-0.1-0.4-0.2c-0.1-0.1-0.2-0.2-0.2-0.2
			c0-0.3,0-0.7,0.1-1c0-0.4,0.1-0.7,0.2-1.1c0.1-0.4,0.2-0.8,0.3-1.2c0.1-0.4,0.2-0.8,0.4-1.2c0.3-0.9,0.7-1.8,1.1-2.7
			c0.4-0.9,0.9-1.7,1.4-2.5c0.5-0.8,1-1.5,1.5-2.1c0.5-0.7,0.9-1.2,1.3-1.7c0.1,0,0.1,0,0.2,0.1c0.1,0.1,0.2,0.1,0.3,0.2
			c0.1,0.1,0.2,0.2,0.3,0.3c0.1,0.1,0.2,0.2,0.2,0.2c0,0,0.1,0.1,0.1,0.2c0,0.1,0,0.1,0,0.2c-0.3,0.5-0.6,1.1-1,1.6
			c-0.3,0.6-0.7,1.1-1,1.7c-0.3,0.6-0.7,1.2-1,1.8c-0.3,0.6-0.6,1.2-0.9,1.8c0.1-0.1,0.1-0.2,0.2-0.2c0.1-0.1,0.2-0.1,0.3-0.2
			c0.1,0,0.2-0.1,0.3-0.1c0.1,0,0.2,0,0.3-0.1c0.3,0,0.5,0,0.8,0.1c0.3,0.1,0.5,0.2,0.7,0.3c0.2,0.1,0.4,0.3,0.5,0.4
			c0.1,0.2,0.2,0.3,0.2,0.5c0.4,0,0.8-0.1,1.1-0.2c0.4-0.2,0.7-0.3,1.1-0.6c0.1,0,0.1-0.1,0.2-0.1c0,0,0.1,0,0.1,0
			c0,0,0.1,0,0.1,0.1c0,0,0.1,0.1,0.1,0.2c0,0.1,0.1,0.2,0.1,0.3c0,0.1,0,0.2,0,0.4c0,0.1-0.1,0.2-0.1,0.3
			C-34.4,149.4-34.5,149.5-34.6,149.6z M-39,150.8c-0.1,0-0.3-0.1-0.4-0.1c-0.2-0.1-0.3-0.1-0.5-0.2c-0.2-0.1-0.4-0.2-0.5-0.3
			c-0.2-0.1-0.4-0.2-0.6-0.3c-0.1,0.2-0.2,0.4-0.3,0.7c-0.1,0.2-0.1,0.4-0.2,0.6c0,0.2-0.1,0.4-0.1,0.6c0,0.2,0,0.4,0,0.6
			c0,0.1,0,0.1,0,0.2c0,0,0.1,0.1,0.1,0.1c0.2,0,0.4-0.1,0.7-0.2c0.2-0.1,0.5-0.3,0.7-0.5c0.2-0.2,0.4-0.4,0.6-0.5
			C-39.2,151.1-39.1,151-39,150.8z"/>
		<path class="st0" d="M-32.7,152.7c-0.1,0-0.3,0-0.5-0.1c-0.2-0.1-0.4-0.1-0.7-0.2c-0.2-0.1-0.5-0.2-0.7-0.3
			c-0.2-0.1-0.4-0.2-0.6-0.4c-0.2-0.1-0.3-0.2-0.5-0.4c-0.1-0.1-0.2-0.2-0.2-0.3c0-0.6,0.1-1.1,0.2-1.7c0.1-0.6,0.2-1.1,0.4-1.6
			c0.2-0.5,0.4-1,0.6-1.5c0.2-0.5,0.5-1,0.7-1.5c0.3-0.5,0.5-0.9,0.8-1.3c0.3-0.4,0.5-0.8,0.8-1.2c0.1-0.2,0.3-0.4,0.5-0.7
			c0.2-0.2,0.5-0.5,0.8-0.7c0.3-0.2,0.6-0.4,0.9-0.5c0.3-0.1,0.6-0.2,1-0.2c0.1,0,0.3,0,0.4,0.1c0.1,0.1,0.3,0.1,0.4,0.2
			c0.1,0.1,0.3,0.2,0.4,0.3c0.1,0.1,0.2,0.2,0.3,0.3c0.1,0.1,0.2,0.2,0.2,0.3c0.1,0.1,0.1,0.1,0.1,0.2c0,0.4-0.1,0.8-0.3,1.2
			c-0.2,0.4-0.5,0.9-0.8,1.4c-0.3,0.5-0.7,1-1.1,1.5c-0.4,0.5-0.9,1-1.3,1.5c-0.5,0.5-0.9,0.9-1.4,1.3c-0.5,0.4-0.9,0.8-1.3,1.1
			c0,0,0,0.1,0,0.3c0,0.1,0.1,0.3,0.1,0.4c0,0.1,0.1,0.3,0.2,0.4c0.1,0.1,0.2,0.2,0.3,0.1c0.1,0,0.3-0.1,0.5-0.2
			c0.2-0.1,0.4-0.2,0.6-0.4c0.2-0.2,0.4-0.4,0.6-0.6c0.2-0.2,0.4-0.4,0.7-0.6c0.2-0.2,0.4-0.4,0.6-0.6c0.2-0.2,0.4-0.4,0.6-0.6
			c0.1-0.1,0.1-0.1,0.2-0.1c0.1,0,0.1,0,0.2,0c0.1,0,0.2,0,0.2,0.1c0.1,0.1,0.1,0.2,0.1,0.3c0,0.1,0,0.3-0.1,0.5
			c-0.1,0.2-0.2,0.4-0.3,0.6c-0.1,0.2-0.3,0.5-0.5,0.8c-0.2,0.3-0.4,0.5-0.6,0.8c-0.2,0.3-0.4,0.5-0.7,0.8c-0.2,0.2-0.4,0.5-0.7,0.7
			c-0.2,0.2-0.4,0.4-0.6,0.5C-32.3,152.6-32.5,152.7-32.7,152.7z M-32.8,147.3c0.2-0.1,0.4-0.3,0.6-0.5c0.2-0.2,0.4-0.4,0.6-0.6
			c0.2-0.2,0.4-0.4,0.6-0.7c0.2-0.2,0.4-0.5,0.5-0.7c0.2-0.2,0.3-0.4,0.5-0.6c0.1-0.2,0.2-0.4,0.3-0.5c0.1-0.2,0.2-0.4,0.4-0.6
			c0.1-0.2,0.3-0.4,0.4-0.6c0.1-0.2,0.2-0.4,0.3-0.6c0.1-0.2,0.1-0.4,0.2-0.5c-0.1,0-0.1,0-0.2,0c-0.1,0-0.1,0-0.1,0
			c-0.4,0.3-0.7,0.6-1,1c-0.3,0.4-0.7,0.8-1,1.3c-0.3,0.5-0.7,1-1,1.6C-32.1,145.9-32.5,146.5-32.8,147.3
			C-32.9,147.3-32.8,147.3-32.8,147.3z"/>
		<path class="st0" d="M-21.9,148.3c-0.1,0.2-0.3,0.4-0.5,0.6c-0.2,0.2-0.4,0.5-0.7,0.7c-0.3,0.3-0.5,0.5-0.8,0.8
			c-0.3,0.3-0.6,0.5-0.9,0.7c-0.3,0.2-0.6,0.4-0.8,0.5c-0.3,0.1-0.5,0.2-0.7,0.2c0,0-0.1,0-0.2,0c-0.1,0-0.2-0.1-0.4-0.1
			c-0.1,0-0.3-0.1-0.4-0.1c-0.1-0.1-0.3-0.1-0.4-0.2c-0.1-0.1-0.3-0.1-0.4-0.1c-0.1,0-0.2-0.1-0.3-0.1c-0.2-0.1-0.4-0.2-0.5-0.3
			c-0.2-0.1-0.3-0.3-0.4-0.4c-0.1-0.2-0.2-0.3-0.3-0.5c-0.1-0.2-0.1-0.4-0.1-0.7c0-0.3,0.1-0.7,0.2-1c0.1-0.3,0.3-0.7,0.5-1
			c0.2-0.3,0.4-0.6,0.7-0.9c0.3-0.3,0.6-0.6,0.9-0.8c0.3-0.2,0.6-0.4,1-0.5c0.3-0.1,0.7-0.2,1-0.2c0.5,0,0.9,0,1.2,0.2
			c0.3,0.2,0.4,0.5,0.4,0.9c0,0.2-0.1,0.5-0.2,0.7c-0.1,0.2-0.2,0.4-0.4,0.6c-0.2,0.2-0.4,0.4-0.6,0.5c-0.2,0.2-0.5,0.3-0.7,0.5
			c-0.2,0.1-0.5,0.3-0.8,0.4c-0.3,0.1-0.5,0.2-0.7,0.4c-0.1,0.1-0.1,0.3-0.2,0.4c0,0.1-0.1,0.3-0.1,0.5c0,0.2,0,0.3,0.1,0.5
			c0.1,0.1,0.3,0.1,0.6,0.1c0.3,0,0.6-0.1,0.9-0.3c0.3-0.2,0.7-0.4,1-0.7c0.3-0.3,0.6-0.5,0.9-0.8c0.3-0.3,0.5-0.5,0.8-0.7
			c0.1-0.1,0.1-0.1,0.2-0.2c0.1-0.1,0.2-0.2,0.3-0.3c0.1-0.1,0.2-0.2,0.4-0.3c0.1-0.1,0.3-0.1,0.4-0.1c0,0,0.1,0,0.2,0
			c0.1,0,0.1,0,0.2,0c0,0,0.1,0,0.1,0.1c0,0,0,0.1,0,0.2c0,0.2,0,0.4-0.1,0.6C-21.7,148-21.8,148.2-21.9,148.3z M-26.7,147.1
			c0.2,0,0.3-0.1,0.5-0.2c0.2-0.1,0.3-0.2,0.4-0.3c0.1-0.1,0.3-0.3,0.4-0.4c0.1-0.1,0.2-0.3,0.3-0.4c0,0,0,0-0.1,0c0,0,0,0-0.1,0
			c-0.2,0-0.3,0.1-0.5,0.2c-0.2,0.1-0.3,0.2-0.4,0.3c-0.1,0.1-0.2,0.3-0.3,0.4C-26.6,146.8-26.6,146.9-26.7,147.1z"/>
		<path class="st0" d="M-5,141.6c-0.2,0.2-0.5,0.4-0.7,0.7c-0.3,0.3-0.5,0.6-0.8,0.9c-0.3,0.3-0.5,0.7-0.8,1.2
			c-0.3,0.4-0.5,0.9-0.8,1.4c-0.2,0.5-0.5,1-0.7,1.5c-0.2,0.5-0.4,1-0.6,1.6c-0.2,0.5-0.3,1-0.4,1.5c-0.1,0.5-0.2,0.9-0.2,1.3
			c0,0.1,0,0.1-0.1,0.2c0,0.1-0.1,0.1-0.2,0.2c-0.1,0.1-0.2,0.1-0.3,0.1c-0.1,0-0.2,0.1-0.3,0.1c-0.1,0-0.3,0-0.4-0.1
			c-0.2-0.1-0.3-0.2-0.5-0.4c-0.2-0.3-0.3-0.7-0.5-1.2c-0.2-0.5-0.3-1-0.4-1.5c-0.1-0.5-0.3-1.1-0.4-1.6c-0.1-0.5-0.3-1-0.4-1.5
			c-0.1-0.4-0.2-0.8-0.4-1.2c-0.1-0.3-0.2-0.6-0.3-0.8c-0.1,0.2-0.2,0.4-0.3,0.6c-0.1,0.2-0.2,0.5-0.4,0.8c-0.1,0.3-0.3,0.7-0.4,1
			c-0.2,0.4-0.3,0.8-0.5,1.2c-0.2,0.4-0.3,0.8-0.5,1.2c-0.2,0.4-0.3,0.8-0.4,1.2c-0.1,0.4-0.3,0.7-0.4,1c-0.1,0.3-0.2,0.5-0.3,0.7
			c-0.2,0-0.3-0.1-0.5-0.2c-0.1-0.1-0.3-0.2-0.4-0.3c-0.1-0.1-0.3-0.2-0.4-0.4c-0.1-0.1-0.3-0.2-0.4-0.4c0.3-0.9,0.6-1.8,0.9-2.7
			c0.3-0.9,0.7-1.6,1.1-2.4c0.4-0.7,0.8-1.4,1.2-2c0.4-0.6,0.8-1.1,1.3-1.6c0.1-0.1,0.2-0.1,0.4-0.1c0.1,0,0.2,0,0.3,0.1
			c0.4,0.3,0.7,0.7,0.9,1c0.3,0.4,0.5,0.8,0.7,1.3c0.2,0.5,0.4,0.9,0.5,1.5c0.1,0.5,0.3,1.1,0.4,1.7c0.2-0.5,0.4-0.9,0.6-1.3
			c0.2-0.4,0.4-0.9,0.7-1.3c0.2-0.4,0.5-0.8,0.8-1.1c0.3-0.3,0.5-0.6,0.8-0.9c0.1-0.1,0.3-0.3,0.5-0.4c0.2-0.1,0.4-0.3,0.6-0.4
			c0.2-0.1,0.5-0.2,0.8-0.2c0.3-0.1,0.6-0.1,0.9-0.1c0,0,0.1,0,0.1,0c0,0,0.1,0,0.1,0c0,0,0.1,0,0.1,0C-5,141.6-5,141.6-5,141.6z"/>
		<path class="st0" d="M-7.2,150.5c-0.2-0.5-0.4-1-0.5-1.4c-0.1-0.4-0.1-0.8,0-1.2c0.1-0.3,0.2-0.7,0.3-0.9c0.2-0.3,0.4-0.5,0.6-0.8
			c0.4-0.3,0.8-0.6,1.2-0.8c0.4-0.2,0.8-0.3,1.2-0.3c0.4,0,0.8,0.1,1.2,0.2c0.4,0.2,0.9,0.4,1.3,0.8c0.1,0,0.1-0.1,0.2-0.1
			c0.1,0,0.2-0.1,0.3,0c0.1,0,0.2,0,0.3,0.1c0.1,0,0.2,0.1,0.3,0.2c0.2,0.2,0.3,0.3,0.4,0.5c0.1,0.1,0.1,0.2,0.1,0.3
			c0,0.1,0,0.2-0.1,0.4c-0.1,0.1-0.2,0.3-0.3,0.5c-0.3,0.4-0.5,0.8-0.7,1.2c-0.2,0.4-0.3,0.8-0.4,1.3c0,0.2,0,0.3,0.2,0.3
			c0.1,0,0.4-0.1,0.6-0.2c0.3-0.1,0.6-0.3,0.9-0.6c0.3-0.2,0.7-0.5,1-0.8c0.4-0.3,0.7-0.5,1-0.8c0.3-0.3,0.6-0.5,0.8-0.7
			c0.2,0.2,0.3,0.3,0.3,0.5c0.1,0.2,0.1,0.3,0.1,0.5c0,0.1,0,0.3-0.1,0.4c0,0.1-0.1,0.2-0.1,0.3c-0.4,0.6-0.9,1.1-1.5,1.6
			c-0.6,0.5-1.2,0.9-1.8,1.2c-0.3,0.1-0.6,0.2-0.8,0.3c-0.3,0.1-0.6,0.1-0.8,0c-0.3,0-0.5-0.1-0.8-0.2c-0.3-0.1-0.5-0.3-0.7-0.5
			c-0.1-0.1-0.2-0.2-0.3-0.4c0-0.1-0.1-0.2-0.1-0.4c0-0.1,0-0.2,0-0.3c0-0.1,0.1-0.2,0.1-0.3c-0.4,0.2-0.8,0.4-1.2,0.5
			c-0.4,0.1-0.8,0.1-1.1,0.1c-0.3,0-0.6-0.1-0.9-0.2C-7,150.7-7.2,150.6-7.2,150.5z M-3.6,146.4c-0.1,0-0.2,0.1-0.3,0.1
			c-0.1,0.1-0.3,0.2-0.4,0.3c-0.1,0.1-0.3,0.3-0.4,0.4c-0.1,0.2-0.3,0.3-0.4,0.5c-0.1,0.2-0.2,0.4-0.3,0.5c-0.1,0.2-0.1,0.3-0.2,0.5
			c0,0.1,0,0.3,0,0.4c0,0.1,0.1,0.2,0.3,0.2c0.3,0,0.6,0,0.9-0.2c0.3-0.1,0.6-0.3,0.8-0.6c0.2-0.2,0.5-0.5,0.7-0.8
			c0.2-0.3,0.4-0.6,0.5-0.8c0,0,0-0.1-0.1-0.2c-0.1-0.1-0.2-0.1-0.3-0.2c-0.1-0.1-0.3-0.1-0.4-0.2C-3.3,146.4-3.4,146.3-3.6,146.4z"
			/>
		<path class="st0" d="M17.1,151c-0.1,0.2-0.2,0.4-0.4,0.7c-0.2,0.3-0.3,0.5-0.5,0.8c-0.2,0.3-0.4,0.5-0.7,0.8
			c-0.2,0.3-0.5,0.5-0.8,0.7c-0.3,0.2-0.5,0.3-0.8,0.4c-0.3,0.1-0.6,0.1-0.9,0c-0.2-0.1-0.4-0.1-0.6-0.3c-0.2-0.1-0.4-0.3-0.5-0.5
			c-0.1-0.2-0.3-0.4-0.4-0.6c-0.1-0.2-0.1-0.5-0.1-0.7c0-0.3,0-0.6,0.1-0.9c0.1-0.3,0.2-0.6,0.3-0.8c0.1-0.3,0.2-0.5,0.3-0.8
			c0.1-0.2,0.1-0.5,0.1-0.7c0,0,0-0.1-0.1-0.1c0,0-0.1-0.1-0.1-0.1c-0.1,0-0.2,0-0.3,0.1c-0.1,0.1-0.2,0.2-0.3,0.3
			c-0.1,0.1-0.2,0.3-0.3,0.4c-0.1,0.2-0.2,0.3-0.3,0.5c-0.1,0.2-0.2,0.3-0.2,0.4c-0.1,0.1-0.1,0.2-0.2,0.3c-0.3,0.4-0.5,0.9-0.7,1.4
			c-0.2,0.5-0.4,1-0.6,1.4c-0.1-0.1-0.3-0.2-0.4-0.2c-0.1-0.1-0.2-0.2-0.3-0.2c-0.1-0.1-0.2-0.2-0.3-0.3c-0.1-0.1-0.2-0.2-0.3-0.3
			c0-0.3,0.1-0.7,0.2-1c0.1-0.3,0.3-0.7,0.4-1c0.1-0.3,0.3-0.7,0.4-1c0.1-0.3,0.2-0.7,0.2-1c0-0.1,0-0.1-0.1-0.2c0,0-0.1,0-0.2-0.1
			c-0.1,0-0.3,0-0.5,0.1c-0.2,0.1-0.3,0.2-0.5,0.4c-0.2,0.2-0.3,0.4-0.5,0.7c-0.2,0.3-0.3,0.6-0.5,0.9c-0.2,0.3-0.3,0.6-0.5,0.9
			c-0.2,0.3-0.3,0.6-0.4,0.9c-0.1,0.3-0.3,0.5-0.4,0.7c-0.1,0.2-0.2,0.4-0.3,0.4c-0.1-0.1-0.3-0.2-0.4-0.2c-0.1-0.1-0.2-0.1-0.3-0.2
			c-0.1-0.1-0.2-0.2-0.3-0.3c-0.1-0.1-0.2-0.2-0.2-0.3c0-0.3,0-0.7,0.1-1c0.1-0.3,0.2-0.6,0.3-0.9c0.1-0.3,0.3-0.5,0.4-0.8
			c0.1-0.3,0.3-0.5,0.4-0.8c0.1-0.3,0.2-0.5,0.3-0.8c0.1-0.3,0.1-0.5,0.1-0.8c0-0.1,0-0.2,0-0.4c-0.3,0.1-0.5,0.1-0.7,0.3
			c-0.2,0.1-0.4,0.2-0.6,0.4c-0.2,0.1-0.3,0.3-0.5,0.4c-0.1,0.1-0.3,0.3-0.4,0.4c-0.1,0.1-0.2,0.2-0.3,0.3c-0.1,0.1-0.2,0.1-0.3,0.1
			c-0.1,0-0.2-0.1-0.3-0.1c-0.1-0.1-0.2-0.2-0.4-0.4c0.1-0.1,0.2-0.3,0.4-0.6c0.2-0.2,0.3-0.5,0.5-0.7c0.2-0.2,0.4-0.5,0.6-0.7
			c0.2-0.2,0.4-0.4,0.7-0.6c0.2-0.2,0.5-0.3,0.8-0.4c0.3-0.1,0.6-0.1,0.9-0.1c0.2,0,0.4,0.1,0.5,0.1c0.2,0.1,0.3,0.2,0.5,0.3
			c0.2,0.1,0.3,0.3,0.4,0.4c0.1,0.2,0.2,0.3,0.2,0.5c0.1-0.1,0.1-0.2,0.2-0.2c0.1-0.1,0.2-0.1,0.3-0.2c0.1-0.1,0.2-0.1,0.4-0.1
			c0.1,0,0.3,0,0.5,0c0.2,0,0.3,0.1,0.5,0.2c0.2,0.1,0.3,0.2,0.5,0.3c0.1,0.1,0.3,0.3,0.4,0.4c0.1,0.2,0.2,0.3,0.2,0.5
			c0.1-0.1,0.3-0.2,0.4-0.2c0.1-0.1,0.3-0.1,0.4-0.2c0.1,0,0.3-0.1,0.4-0.1c0.2,0,0.3,0,0.5,0c0.2,0.1,0.4,0.2,0.6,0.4
			c0.2,0.2,0.4,0.4,0.6,0.7c0.2,0.2,0.3,0.5,0.4,0.8c0.1,0.3,0.2,0.5,0.2,0.8c0,0.2,0,0.4-0.1,0.6c-0.1,0.2-0.2,0.4-0.3,0.6
			c-0.1,0.2-0.2,0.4-0.3,0.6c-0.1,0.2-0.1,0.4-0.1,0.5c0,0.1,0,0.1,0,0.2c0,0.1,0.1,0.1,0.1,0.1c0.1,0,0.2,0,0.4-0.1
			c0.2-0.1,0.4-0.2,0.6-0.4c0.2-0.2,0.4-0.3,0.6-0.5c0.2-0.2,0.4-0.4,0.6-0.5c0.2-0.2,0.3-0.3,0.5-0.5c0.1-0.1,0.2-0.2,0.3-0.3
			C16.5,150.5,16.8,150.8,17.1,151z"/>
		<path class="st0" d="M23.6,154.1c-0.1,0.1-0.3,0.3-0.5,0.4c-0.2,0.2-0.4,0.3-0.7,0.5c-0.3,0.2-0.5,0.3-0.8,0.5
			c-0.3,0.2-0.6,0.3-0.9,0.4c-0.3,0.1-0.6,0.2-0.8,0.3c-0.3,0.1-0.5,0-0.7,0c0,0-0.1-0.1-0.2-0.1c-0.1-0.1-0.2-0.2-0.4-0.3
			c-0.1-0.1-0.3-0.2-0.4-0.3c-0.1-0.1-0.3-0.2-0.4-0.3c-0.1-0.1-0.3-0.2-0.4-0.3c-0.1-0.1-0.2-0.2-0.3-0.2c-0.2-0.2-0.4-0.4-0.5-0.6
			c-0.2-0.2-0.3-0.4-0.4-0.7c-0.1-0.2-0.2-0.5-0.3-0.7c-0.1-0.3-0.1-0.5-0.1-0.8c0-0.4,0.1-0.7,0.2-1.1c0.1-0.3,0.3-0.7,0.5-1
			c0.2-0.3,0.4-0.6,0.7-0.8c0.3-0.2,0.5-0.4,0.9-0.5c0.3-0.1,0.6-0.2,1-0.3c0.3,0,0.7,0,1,0.1c0.5,0.2,0.9,0.4,1.2,0.7
			c0.3,0.3,0.4,0.7,0.4,1.2c0,0.3-0.1,0.5-0.2,0.7c-0.1,0.2-0.2,0.4-0.4,0.5c-0.2,0.1-0.4,0.3-0.6,0.4c-0.2,0.1-0.5,0.2-0.7,0.2
			c-0.2,0.1-0.5,0.1-0.7,0.1c-0.3,0-0.5,0.1-0.7,0.1c-0.1,0.1-0.1,0.2-0.2,0.4c0,0.1-0.1,0.3-0.1,0.5c0,0.2,0,0.4,0.1,0.6
			c0.1,0.2,0.3,0.3,0.6,0.4c0.3,0.1,0.6,0.1,0.9,0c0.3-0.1,0.6-0.2,1-0.3c0.3-0.1,0.6-0.3,0.9-0.5c0.3-0.2,0.5-0.3,0.7-0.5
			c0.1,0,0.1-0.1,0.2-0.2c0.1-0.1,0.2-0.1,0.3-0.2c0.1-0.1,0.2-0.1,0.4-0.1c0.1,0,0.3,0,0.4,0c0,0,0.1,0,0.2,0c0.1,0,0.1,0,0.2,0.1
			c0,0,0.1,0.1,0.1,0.1c0,0.1,0,0.1,0,0.2c0,0.3,0,0.5-0.1,0.7C23.8,153.8,23.7,153.9,23.6,154.1z M18.9,150.6c0.2,0,0.3,0,0.5,0
			c0.1,0,0.3-0.1,0.4-0.2c0.1-0.1,0.3-0.2,0.4-0.3c0.1-0.1,0.2-0.2,0.3-0.4c0,0,0,0-0.1-0.1c0,0,0,0-0.1,0c-0.2,0-0.3,0-0.5,0
			c-0.1,0.1-0.3,0.1-0.4,0.2c-0.1,0.1-0.2,0.2-0.3,0.3C19,150.3,18.9,150.4,18.9,150.6z"/>
		<path class="st0" d="M21.2,153.5c0.2-0.1,0.3-0.3,0.5-0.4c0.1-0.1,0.3-0.2,0.4-0.3c0.1-0.1,0.3-0.2,0.4-0.2
			c0.1-0.1,0.2-0.1,0.4-0.2c0.1-0.1,0.3-0.2,0.4-0.3c0.1-0.1,0.3-0.2,0.5-0.3c0.3-0.2,0.5-0.4,0.8-0.6c0.2-0.2,0.5-0.5,0.6-0.8
			c0.1-0.1,0.1-0.3,0.2-0.5c0-0.2,0-0.4,0-0.5c0-0.2,0-0.3,0.1-0.5c0-0.2,0.1-0.3,0.2-0.4c0,0,0,0,0.1,0c0.1,0,0.2,0.1,0.3,0.2
			c0.1,0.1,0.3,0.3,0.5,0.5c0.2,0.2,0.3,0.4,0.5,0.6c0.2,0.2,0.3,0.4,0.5,0.6c0.1,0.2,0.3,0.4,0.3,0.6c0.1,0.2,0.1,0.3,0.2,0.4
			c0,0,0,0.1,0,0.1c0,0,0,0,0,0.1c0,0.1,0,0.3,0,0.4c0,0.1,0,0.3,0,0.4c0,0.1,0,0.2,0.1,0.5c0.1,0.2,0.1,0.5,0.2,0.9
			c0.1,0.3,0.2,0.7,0.2,1.1c0.1,0.4,0.1,0.7,0,1.1c0,0.1-0.1,0.1-0.1,0.2c0.1-0.1,0.2-0.2,0.3-0.3c0.1,0,0.2-0.1,0.3-0.1
			c0.1,0,0.2-0.1,0.2-0.1c0.1,0,0.2-0.1,0.3-0.1c0.1-0.1,0.2-0.1,0.4-0.2c0,0,0,0.1,0.1,0.2c0.1,0.1,0.1,0.2,0.2,0.4
			c0.1,0.1,0.2,0.3,0.2,0.4c0.1,0.1,0.1,0.2,0.1,0.2c-0.1,0.2-0.3,0.3-0.5,0.5c-0.2,0.2-0.4,0.4-0.7,0.5c-0.3,0.2-0.5,0.3-0.8,0.5
			c-0.3,0.1-0.6,0.3-1,0.3c-0.3,0.1-0.7,0.1-1.1,0.1c-0.4,0-0.8-0.1-1.2-0.2c-0.2-0.1-0.5-0.2-0.7-0.5c-0.3-0.2-0.5-0.5-0.8-0.8
			c-0.2-0.3-0.5-0.6-0.7-1c-0.2-0.3-0.4-0.7-0.5-1c-0.1,0.1-0.3,0.1-0.4,0.1c-0.1,0-0.3,0-0.3,0c-0.1,0-0.2-0.1-0.3-0.1
			c-0.1-0.1-0.2-0.1-0.3-0.2c-0.1-0.1-0.2-0.2-0.3-0.3c-0.1-0.1-0.1-0.2-0.1-0.3c0-0.1,0-0.2,0.1-0.2
			C21,153.7,21.1,153.6,21.2,153.5z M26.4,152.4c-0.1,0.3-0.3,0.5-0.5,0.7c-0.2,0.2-0.4,0.4-0.6,0.5c-0.2,0.2-0.4,0.3-0.7,0.4
			c-0.2,0.1-0.5,0.3-0.7,0.4c0,0.1,0.1,0.2,0.2,0.4c0.1,0.1,0.2,0.2,0.2,0.3c0.1,0.1,0.2,0.2,0.3,0.2c0.1,0.1,0.2,0.1,0.3,0.1
			c0.3,0.1,0.5,0.1,0.7,0.1c0.2,0,0.4-0.1,0.6-0.2c0.2-0.1,0.3-0.3,0.4-0.5c0.1-0.2,0.1-0.4,0.1-0.6c0-0.2,0-0.3,0-0.5
			c0-0.2,0-0.3-0.1-0.5c0-0.2-0.1-0.3-0.1-0.5C26.5,152.7,26.4,152.6,26.4,152.4z"/>
	</g>
</g>
</svg>
